<?xml version="1.0" encoding="utf-8"?>
<!-- Generator: Adobe Illustrator 19.1.0, SVG Export Plug-In . SVG Version: 6.00 Build 0)  -->
<!DOCTYPE svg PUBLIC "-//W3C//DTD SVG 1.1//EN" "http://www.w3.org/Graphics/SVG/1.1/DTD/svg11.dtd">
<svg version="1.1" id="Layer_1" xmlns="http://www.w3.org/2000/svg" xmlns:xlink="http://www.w3.org/1999/xlink" x="0px" y="0px"
	 viewBox="0 0 960 960" style="enable-background:new 0 0 960 960;" xml:space="preserve">
<style type="text/css">
	.st0{fill:#4E4E4E;}
	.st1{fill:#FFFDFD;}
</style>
<path class="st0" d="M881.7,960H78.3C35,960,0,924.9,0,881.7V78.3C0,35,35.1,0,78.3,0h803.4C925,0,960,35.1,960,78.3v803.3
	C960,924.9,924.9,960,881.7,960z"/>
<path class="st1" d="M522,690.7c-18.5-71.8-38.5-143.2-60-214.2c-12.1-40-24.8-79.9-37.9-119.6c-0.5-1.6-1.5-2.5-2.7-3
	c0.2,0,0.3,0,0.5-0.1c11.4-1.4,17.9-8.7,24.8-17.1c14.2-17.4,28.2-35.8,32.7-58.4c4.5-22,3.8-47.4-4.7-68.4
	c-7.8-19.2-22.8-33.6-40-44.7c-11.7-7.6-25.9-15.4-40.9-21.3c0.3-0.6,0.5-1.3,0.5-2c1.8-32.2-9.2-63.9-30.2-88.3
	c-2.6-3-7.3-1.1-8.4,2.2c-8.3,26.1-1,52.8,2.3,79.1c-20.2-1.9-39.8,2.7-55,18.9c-1.6,1.7-1.1,1.1-3.3,3.9
	c-0.1,0.1-9.5,10.6-15.7,27.2c-9.9,26.5-17.3,66.8-6.4,91.4c9.1,20.5,25.4,36.1,41.9,50.9c-0.1,0.1-0.2,0.3-0.2,0.5l-50.6,111.5
	c-16.4,36.2-33,72.2-45.5,110.1c-1.5,4.5-3,9.1-4.4,13.6c-1.2-0.2-2.4-0.1-3.6,0.5c-0.1,0.1-0.3,0.1-0.4,0.2
	c1.5-5.3,0.4-11-4.5-15.6c-1.6-1.5-4.2-1.9-6.1-0.8c-3-11.4-14.9-16.3-25.7-11.4c-10.1,4.7-17.2,20.2-13.9,31
	c1.9,6.3,10.1,9.7,15.9,11.3c6.7,1.9,14.3,2.1,21-0.3c2.7-1,5.3-2.6,7.4-4.6c0.6,0.4,1.2,0.8,1.9,1.3c0.7,0.5,1.5,0.7,2.4,0.7
	c0.3,0.6,0.7,1.1,1.2,1.5c-3.1,9.4-7.8,17.3-11.3,26.6c-6.8,18.4-23.7,43-30.7,61.7c-13.4,35.7-25.1,61.9-38.9,97.4
	c-15.5,39.9-25.9,82.6-22.3,125.7c0.4,4.8,6.6,7,9.3,2.5c19.5-32.9,38.3-66,53.6-101.1c15-34.5,28.7-69.6,43.1-104.5
	c11.7-28.4,23.6-56.8,35.7-85.1c0.9,1.1,2.2,1.9,3.7,1.9c0.3,1.4,1.3,2.8,2.4,3.3c2.8,1.3,5.8,2.4,8.3,4.1c5.4,3.6,10.4-5.1,5-8.6
	c-1.9-1.3-4.1-2.2-6.2-3.2c-0.9-2.8-3.3-4.8-6.1-5.5c0,0,0-0.1-0.1-0.1c-0.5-1.2-1.3-2.3-2.3-3c16.3-37.9,33.1-75.6,50.7-112.9
	c16.3-34.7,33.3-69,51.2-102.9c14.4,68.5,31.4,136.4,50.9,203.6c20.7,71.5,44.3,142.2,70.6,211.9c14.3,37.8,27.6,77.4,50,111.3
	c2.3,3.5,7.9,3.1,9.1-1.2C559.7,829.8,539.2,757.7,522,690.7z M182.3,564.1c-0.5-3.1,0.4-6.9,2.2-9.4c1.5-2.1,8.4-6.2,8.1-1.1
	C192.3,558.6,187.4,564.3,182.3,564.1z M362.9,68.4c15,20.9,22.6,46.5,21.4,72.3c-5.4-1.7-10.8-3.1-16.2-4.2
	C365.4,114.1,359.1,90.9,362.9,68.4z M314,308.5c-7.6-7.3-14.9-15-20.6-23.9c-24.5-38.1,16.7-122.8,17.4-124.3
	c29.3-30,76-10.5,106.7,6.4c15.9,8.7,31.6,19.5,41.6,34.9c11.2,17.2,13.5,38.2,12.5,58.3c-1.1,21.5-9.1,39.5-21.8,56.6
	c-5.6,7.6-11.5,16.1-18.5,22.5c-8.2,7.4-21.5,5.5-31.7,5c-20.6-0.9-44.4-2.9-61.9-14.9C329,323.4,321.5,315.7,314,308.5z
	 M171.3,770.6c-14.6,34.8-32.1,67.8-50.9,100.3c-0.1-70.7,31.7-135.2,61.8-197.6c8.1-16.8,19.2-33.6,26.6-51.8
	c4.6-11.4,8.7-23,12.6-34.7c0.4,0.2,0.9,0.3,1.4,0.4c0.6,3.8,5.4,6.3,8.5,3.1c0.1-0.1,0.2-0.2,0.3-0.3c1.2,0.3,2.6,0.3,3.8-0.1
	c1.3,1.7,3.8,2.3,5.9,1.7c0.2,0.1,0.3,0.2,0.5,0.3c0.1,0.7,0.1,1.4,0.2,2.2c0.1,1.2,0.6,2.3,1.3,3.1
	C218.8,654.8,195.5,712.8,171.3,770.6z M457.1,692.4c-23.7-70.2-44.7-141.4-62.9-213.3c-10.2-40.4-19.5-81.1-27.9-121.9
	c-0.9-4.2-7.2-4.9-9.1-1.2c-35.8,66.8-68,135.5-98.4,205c-3.2,7.4-6.4,14.7-9.6,22.1c-1.1-1-2.5-1.5-4-1.1c-0.5-0.4-1-0.7-1.6-0.9
	c-0.2-0.7-0.5-1.4-0.8-2.2c-1.1-2.6-5.3-3.2-7.4-1.5c-1.2-0.7-2.8-0.9-4.2-0.6c-0.4-0.6-1-1.1-1.6-1.5c0-0.4,0-0.7,0-1.1
	c-0.1-2.1-1.2-3.6-2.7-4.4c0.4-1.1,0.7-2.2,1.1-3.3c6-18.6,12.2-37.1,19.5-55.2c7.5-18.4,15.8-36.4,24-54.5
	c18.6-41,37.2-82,55.8-123c6.9,5.4,14.4,9.7,22.9,12.5c11,3.7,22.7,5.3,34.2,6.5c10.3,1.1,21.2,2,31.7,1.4c-1.6,1-2.6,2.9-1.8,5.2
	c22.9,69.5,44.4,139.4,64.4,209.8c10,35.2,19.6,70.5,28.8,105.9c9,34.5,18.4,69,24.7,104.1c1.9,10.5,3.4,21.2,4.4,31.8
	c-1-0.3-2.2-0.4-3.3-0.3c-2.1-0.9-4.5,0-5.9,1.7c-1.6-0.2-3.4,0.5-4.6,1.8c-0.3-0.1-0.6-0.1-1-0.1c-0.2,0-0.5,0.1-0.7,0.1
	c-1.9-1.1-4.4-1.3-6,0.6c-0.5,0.7-1.1,1.3-1.6,2c-0.4-0.1-0.8-0.1-1.1-0.1c-1.4,0.1-4.6,0.3-5.3,1.8c-0.1,0.1-0.1,0.2-0.1,0.4
	c-0.2-0.1-0.4-0.2-0.7-0.2c-1.2-0.2-2.3-0.1-3.2,0.2c-2.9-7.5-5.7-15-8.6-22.5C481.4,762.1,468.9,727.4,457.1,692.4z M533.2,884.6
	c-10.3-17.6-18.5-36.4-26.1-55.4c0.1,0,0.2,0,0.3,0c0.8-0.1,1.7-0.5,2.5-1c1.8,1.9,5.6,2.1,7.2,0.1c1-1.2,2-2.5,3-3.7
	c0.5,0,1.1,0,1.6-0.1c1.4,0.3,2.8,0.3,4.1-0.2c2.3,1.3,5.3,0.1,6.8-1.9c0.2-0.3,0.5-0.7,0.7-1c1.3,0.4,2.8,0.1,4-0.7
	C538.8,842.1,537.8,863.6,533.2,884.6z"/>
<path class="st1" d="M360.6,230.1c-2.3-6.4-8.8-16.9-16.8-16c-6.2,0.7-9.4,8.6-10.9,15.8c-0.4,0.7-0.7,1.3-1,2
	c-2.3,5.5-2.6,11.7,2,17.1c2,2.3,3.2,4.2,5.9,4.9c6.5,1.8,14.1,2.9,18.6-1.6C363.7,246.9,362.9,236.6,360.6,230.1z M351.5,244.6
	c-0.5,0.5-2.4,1.7-3,0.5c-0.2-0.4-2.1-4.7-2.3-8.3c-0.1-2.5,1.5-4.7,1.7-5c0.8-1.7,3.8,1.4,4.8,3.3
	C354.2,237.7,352.9,243.3,351.5,244.6z"/>
<path class="st1" d="M413.3,224.8c-7.3-0.1-11.3,4.8-13.6,11.1c-5.4,6.2-8.9,14.3-6.1,22.1c1.9,5.2,7,8,12.4,6.5
	c5.7-1.5,10.1-6.5,12.6-11.5C422.9,244.6,428.6,225,413.3,224.8z M410.1,247.9c-0.8,1.6-1.3,5.1-2.9,4.4c-3.1-1.2-0.3-7.7,1-11
	c0.9-1.7,2.1-2.7,3.5-3.7c0.5-0.3,1.2-1,1.7-0.8c1.1,0.4-0.4,2.7-0.6,3.5C412.1,242.9,411.3,245.5,410.1,247.9z"/>
<path class="st1" d="M842.4,875.6c-0.4-8-0.9-15.9-1.4-23.9c-1.9-31.9-3.8-63.8-5.7-95.7c-7.5-125.6-15.3-251.1-23.1-376.7
	c-3.9-62.3-7.6-124.5-11.7-186.8c-1-15.9-2.1-31.9-3.3-47.8c-0.5-7.3-1.1-14.6-1.6-21.9c-0.5-6.2-0.6-12.8-3.5-18.4
	c-6.1-11.9-21.6-10.2-32.9-10.9c-15.8-1-31.6-2-47.4-3c-13.6-0.9-27.1-1.7-40.7-2.6c-0.8-0.7-1.8-1.2-3.1-1.4
	c-3.9-0.4-7.8-0.8-11.8-1.2c-2.6-0.3-5.1,2.5-5,5c4.4,125.9,8.9,251.8,13.3,377.6c0,0.3,0,0.5,0,0.8c-0.3,1-0.2,2,0.1,3.1l2.7,75.6
	c-3.8,1.2-3.7,7.5,0.3,9.4l10.1,287.4c0.3,7.1,0.4,14.2,0.8,21.3c0.3,5.6,1,11.4,4.3,16.1c3.5,5.1,9.1,6.9,15,7.8
	c7.4,1,15,1.7,22.4,2.6c30.6,3.5,61.3,6.9,91.9,10.4c12.1,1.4,24.6,2,28.9-11.9C842.7,885.6,842.7,880.4,842.4,875.6z M832.3,884.4
	c-0.9,6.1-3.8,9.1-10.1,8.8c-7.2-0.3-14.4-1.5-21.6-2.3c-15-1.7-30-3.4-45-5.1s-30-3.4-45-5.1c-5.4-0.6-14.9,0.1-18.9-4.2
	c-4.1-4.4-3.1-12.9-3.3-18.4l-0.3-7.9h56.5c6.4,0,6.4-10,0-10h-56.8l-1.4-39.1c7.4,0.5,14.8,1,22.2,1.5c6.4,0.4,6.4-9.6,0-10
	c-7.5-0.5-15-1-22.5-1.5l-1.4-39.5c21.5,1.8,43,1.6,64.4-0.8c6.3-0.7,6.4-10.7,0-10c-21.5,2.3-43.2,2.6-64.8,0.7l-1.6-44.3h24.4
	c6.4,0,6.4-10,0-10h-24.7c-0.4-10.8-0.8-21.7-1.1-32.5c26.6,0.8,53.2,1,79.9,0.4c6.4-0.1,6.4-10.1,0-10c-26.7,0.6-53.5,0.4-80.2-0.4
	c-0.4-11-0.8-22-1.2-33h22.9c6.4,0,6.4-10,0-10h-23.2c-0.5-14.5-1-29-1.5-43.5c17.7,1.7,35.5,1.9,53.2,0.7c6.4-0.5,6.4-10.5,0-10
	c-17.9,1.3-35.8,1.1-53.6-0.7c-0.3-9.9-0.7-19.8-1-29.8c9.1,2,18.3,2.2,27.6,0.7c6.3-1,3.6-10.6-2.7-9.6c-8.5,1.3-17,0.7-25.3-1.5
	c-0.1-3.8-0.3-7.6-0.4-11.4c-0.3-7.2-0.5-14.4-0.8-21.6c23.5-3.6,47.4-4.3,71.2-2.4c6.4,0.5,6.4-9.5,0-10c-23.9-1.9-47.8-1-71.5,2.5
	c-0.4-12-0.8-24-1.3-36c0.6,0.6,1.4,1.1,2.4,1.3c8.6,1.7,17.1,3.5,25.7,5.2c6.3,1.3,9-8.4,2.7-9.6c-8.6-1.7-17.1-3.5-25.7-5.2
	c-2.4-0.5-4.3,0.6-5.3,2.2c-0.6-16.6-1.2-33.3-1.8-49.9c24.1,4.7,48.7,6.3,73.3,4.5c6.4-0.5,6.4-10.5,0-10
	c-24.7,1.8-49.4,0.2-73.6-4.8c-0.5-14.2-1-28.3-1.5-42.5c0.5,1.6,1.7,2.9,3.3,3.2c3.5,0.5,7,1,10.5,1.5c2.7,0.4,5.4-0.7,6.2-3.5
	c0.6-2.4-0.8-5.8-3.5-6.2c-3.5-0.5-7-1-10.5-1.5c-2.6-0.4-5.3,0.6-6.1,3.4c-0.3-9.5-0.7-19-1-28.5c24.4,2.5,48.9,4.9,73.3,7.4
	c6.4,0.6,6.4-9.4,0-10c-24.5-2.5-49-4.9-73.5-7.4c-0.1,0-0.1,0-0.2,0c-1.7-48.1-3.4-96.2-5.1-144.3c-0.5-12.8-0.9-25.6-1.4-38.4
	c0.5,0.1,1,0.1,1.5,0.2c0.8,0.9,1.9,1.5,3.4,1.6c30.3,1.9,60.5,3.8,90.8,5.8c6.6,0.4,14.5-0.2,20.8,1.6c6.3,1.8,6.8,8.3,7.3,13.9
	c1.2,14.6,2.2,29.2,3.2,43.8c4.2,60.6,7.8,121.2,11.5,181.8c7.5,120.9,15,241.8,22.3,362.7c1.8,30.2,3.6,60.5,5.4,90.7
	c0.9,15.3,1.8,30.6,2.7,45.8c0.4,7.3,0.9,14.6,1.3,21.9C832.2,871.8,833.2,878.2,832.3,884.4z"/>
<path class="st1" d="M752.9,136.2c-6.8-4.6-15.3-4.8-23.2-4.7c-0.4,0-0.8,0-1.1,0.1c-9.7,0.3-18.2,9.2-22.1,17.7
	c-5.1,11.1-5.8,24.8,4.5,33.1c4.3,3.5,9.7,5.5,15.2,6.5c5.6,1,12.8,2.3,18.1-0.2c6-2.8,8.3-10.1,10.8-15.7c2.8-6.3,6.4-13.1,6.9-20
	C762.4,146.1,758.6,140,752.9,136.2z M750.4,158.1c-2.1,6-4.8,12-7.6,17.7c-1.4,2.9-2.2,4.1-5.6,4.4c-2.3,0.1-4.8-0.2-7.1-0.5
	c-9.5-1.4-18.6-6.2-17.3-17.3c1-8.4,9-24.1,19.6-19.9c2,0.8,3.6,0.3,4.6-0.9c3.6,0.2,7.2,0.9,10.3,2.9
	C752.6,147.9,752.4,152.6,750.4,158.1z"/>
</svg>
